<?xml version="1.0" encoding="utf-8"?>
<!-- Generator: Adobe Illustrator 16.0.0, SVG Export Plug-In . SVG Version: 6.00 Build 0)  -->
<!DOCTYPE svg PUBLIC "-//W3C//DTD SVG 1.1//EN" "http://www.w3.org/Graphics/SVG/1.1/DTD/svg11.dtd">
<svg version="1.1" id="Layer_1" xmlns="http://www.w3.org/2000/svg" xmlns:xlink="http://www.w3.org/1999/xlink" x="0px" y="0px"
	 width="47.99px" height="47.991px" viewBox="0 0 47.99 47.991" enable-background="new 0 0 47.99 47.991" xml:space="preserve">
<g>
	<path d="M2.039,24.48c0-4.572,3.379-7.973,8.041-7.973c4.684,0,8.063,3.445,8.063,7.68c0,4.549-3.379,7.95-8.063,7.95
		C5.417,32.138,2.039,28.714,2.039,24.48z M15.169,24.21c0-4.032-2.05-6.981-5.09-6.981c-2.996,0-5.068,2.928-5.068,7.252
		c0,3.986,2.072,6.937,5.068,6.937C13.12,31.417,15.169,28.488,15.169,24.21z"/>
	<path d="M19.828,27.16c0-2.59,1.577-5.293,4.933-5.293c1.059,0,2.05,0.271,2.657,0.631v-4.302c0-0.608-0.202-0.788-0.585-0.878
		l-0.923-0.226v-0.315c1.441-0.225,2.59-0.428,3.761-0.924l0.226,0.158c-0.226,0.473-0.293,1.171-0.293,2.072v11.824
		c0,0.945,0.54,1.306,1.756,1.261v0.54c-1.17,0.045-2.184,0.203-3.355,0.338L27.8,31.935l-0.18-1.216h-0.09L25.527,31.8
		c-0.203,0.112-0.563,0.247-0.856,0.247C21.36,32.047,19.828,29.728,19.828,27.16z M27.417,28.646v-3.107
		c0-1.622-1.17-2.974-2.477-2.974c-1.893,0-2.748,1.824-2.748,3.784c0,2.319,0.946,4.324,3.086,4.324
		C26.585,30.674,27.417,29.728,27.417,28.646z"/>
	<path d="M32.484,31.417l1.238-0.248c1.126-0.226,1.307-0.383,1.307-1.329V18.872c0-1.126-0.181-1.239-1.441-1.486l-1.104-0.226
		v-0.45h7.071c3.964,0,6.396,1.824,6.396,4.46c0,3.558-4.324,4.842-6.688,4.211v-0.158c2.071-0.135,3.873-1.148,3.873-4.008
		c0-2.771-1.576-3.852-4.145-3.852h-1.261V29.84c0,0.946,0.203,1.127,1.307,1.329l1.374,0.248v0.45h-7.928V31.417z"/>
</g>
</svg>
